<svg width="60" height="60" viewBox="0 0 60 60" fill="none" xmlns="http://www.w3.org/2000/svg">
<path d="M38.75 45C38.75 49.8325 34.8325 53.75 30 53.75C25.1675 53.75 21.25 49.8325 21.25 45" fill="#FFFEFE"/>
<path d="M38.75 45C38.75 49.8325 34.8325 53.75 30 53.75C25.1675 53.75 21.25 49.8325 21.25 45" stroke="white" stroke-width="2" stroke-linecap="round" stroke-linejoin="round"/>
<path d="M48.0778 45H11.9222C9.47987 45 7.5 43.02 7.5 40.5778C7.5 39.405 7.9659 38.2802 8.79523 37.4507L10.3033 35.9427C11.7098 34.5362 12.5 32.6285 12.5 30.6395V23.75C12.5 14.085 20.335 6.25 30 6.25C39.665 6.25 47.5 14.085 47.5 23.75V30.6395C47.5 32.6285 48.2903 34.5362 49.6968 35.9427L51.2047 37.4507C52.034 38.2802 52.5 39.405 52.5 40.5778C52.5 43.02 50.52 45 48.0778 45Z" fill="#FFFEFE" stroke="white" stroke-width="2" stroke-linecap="round" stroke-linejoin="round"/>
</svg>
